<?xml version="1.0" encoding="utf-8"?>
<!-- Generator: Adobe Illustrator 23.0.1, SVG Export Plug-In . SVG Version: 6.00 Build 0)  -->
<svg version="1.1" id="Layer_1" xmlns="http://www.w3.org/2000/svg" xmlns:xlink="http://www.w3.org/1999/xlink" x="0px" y="0px"
	 viewBox="0 0 151.32 151.32" style="enable-background:new 0 0 151.32 151.32;" xml:space="preserve">
<style type="text/css">
	.st0{fill:#87CEB3;}
	.st1{fill:#F47A34;}
	.st2{fill:#6C3B3A;}
	.st3{fill:#F6E0AE;}
	.st4{fill:#FCB318;}
</style>
<rect class="st0" width="151.32" height="151.32"/>
<path class="st1" d="M60.47,49.36c-0.56,0.16-1.11,0.31-1.67,0.45c0,0-0.01,0-0.01,0c0,0-0.01,0-0.01,0
	c-1.56,0.43-3.12,0.81-4.68,1.16c-2.81-9.09-5.62-18.18-8.42-27.27c6.47,6.98,12.94,13.95,19.4,20.93c-1.09,1.18-2.2,2.34-3.35,3.48
	c0,0-0.01,0.01-0.01,0.01c0,0-0.01,0.01-0.01,0.01C61.3,48.55,60.89,48.96,60.47,49.36z"/>
<path class="st1" d="M101.96,60.47c-0.16-0.56-0.31-1.11-0.45-1.67c0,0,0-0.01,0-0.01c0,0,0-0.01,0-0.01
	c-0.43-1.56-0.81-3.12-1.16-4.68c9.09-2.81,18.18-5.62,27.27-8.42c-6.98,6.47-13.95,12.94-20.93,19.4c-1.18-1.09-2.34-2.2-3.48-3.35
	c0,0-0.01-0.01-0.01-0.01c0,0-0.01-0.01-0.01-0.01C102.77,61.3,102.36,60.89,101.96,60.47z"/>
<path class="st1" d="M49.36,90.84c0.16,0.56,0.31,1.11,0.45,1.67c0,0,0,0.01,0,0.01c0,0,0,0.01,0,0.01
	c0.43,1.56,0.81,3.12,1.16,4.68c-9.09,2.81-18.18,5.62-27.27,8.42c6.98-6.47,13.95-12.94,20.93-19.4c1.18,1.09,2.34,2.2,3.48,3.35
	c0,0,0.01,0.01,0.01,0.01c0,0,0.01,0.01,0.01,0.01C48.55,90.02,48.96,90.43,49.36,90.84z"/>
<path class="st1" d="M49.36,60.47c-0.4,0.41-0.81,0.82-1.22,1.23c0,0-0.01,0.01-0.01,0.01c0,0-0.01,0.01-0.01,0.01
	c-1.13,1.15-2.3,2.26-3.48,3.35c-6.98-6.47-13.95-12.94-20.93-19.4c9.09,2.81,18.18,5.61,27.27,8.42c-0.35,1.57-0.73,3.13-1.16,4.68
	c0,0,0,0.01,0,0.01c0,0,0,0.01,0,0.01C49.67,59.36,49.52,59.92,49.36,60.47z"/>
<path class="st1" d="M90.84,101.96c0.56-0.16,1.11-0.31,1.67-0.45c0,0,0.01,0,0.01,0c0,0,0.01,0,0.01,0
	c1.56-0.43,3.12-0.81,4.68-1.16c2.81,9.09,5.62,18.18,8.42,27.27c-6.47-6.98-12.94-13.95-19.4-20.93c1.09-1.18,2.2-2.34,3.35-3.48
	c0,0,0.01-0.01,0.01-0.01c0,0,0.01-0.01,0.01-0.01C90.02,102.77,90.43,102.36,90.84,101.96z"/>
<path class="st1" d="M101.96,90.84c0.4-0.41,0.81-0.82,1.22-1.23c0,0,0.01-0.01,0.01-0.01c0,0,0.01-0.01,0.01-0.01
	c1.13-1.15,2.3-2.26,3.48-3.35c6.98,6.47,13.95,12.94,20.93,19.4c-9.09-2.81-18.18-5.61-27.27-8.42c0.35-1.57,0.73-3.13,1.16-4.68
	c0,0,0-0.01,0-0.01c0,0,0-0.01,0-0.01C101.65,91.95,101.8,91.4,101.96,90.84z"/>
<path class="st2" d="M55.39,0c6.6,3.15,13.3,6.07,20.27,8.39C82.63,6.07,89.33,3.15,95.93,0c4.14,6.03,8.48,11.9,13.36,17.4
	c7.2,1.47,14.46,2.29,21.75,2.87c0.57,7.29,1.39,14.55,2.87,21.75c5.5,4.88,11.38,9.22,17.4,13.36c-3.15,6.6-6.07,13.3-8.39,20.27
	c2.32,6.97,5.24,13.67,8.39,20.27c-6.03,4.14-11.9,8.48-17.4,13.36c-1.47,7.2-2.29,14.46-2.87,21.75
	c-7.29,0.57-14.55,1.39-21.75,2.87c-4.88,5.5-9.22,11.38-13.36,17.4c-6.6-3.15-13.3-6.07-20.27-8.39
	c-6.97,2.32-13.67,5.24-20.27,8.39c-4.14-6.03-8.48-11.9-13.36-17.4c-7.2-1.47-14.46-2.29-21.75-2.87
	c-0.57-7.29-1.39-14.55-2.87-21.75c-5.5-4.88-11.38-9.22-17.4-13.36c3.15-6.6,6.07-13.3,8.39-20.27C6.07,68.68,3.15,61.99,0,55.39
	c6.03-4.14,11.9-8.48,17.4-13.36c1.47-7.2,2.29-14.46,2.87-21.75c7.29-0.57,14.55-1.39,21.75-2.87C46.9,11.9,51.24,6.03,55.39,0z
	 M75.66,49.4c-0.89-0.22-1.79-0.45-2.68-0.7c-0.01,0-0.02-0.01-0.04-0.01c-0.01,0-0.02-0.01-0.04-0.01
	c-1.63-0.42-3.25-0.89-4.84-1.39c-1.13,1.23-2.3,2.44-3.5,3.62c-0.01,0.01-0.02,0.02-0.03,0.03c-0.01,0.01-0.02,0.02-0.03,0.03
	c-0.65,0.66-1.31,1.31-1.97,1.95c-0.89,0.26-1.78,0.5-2.67,0.73c-0.01,0-0.02,0.01-0.04,0.01c-0.01,0-0.02,0.01-0.04,0.01
	c-1.63,0.45-3.26,0.85-4.89,1.22c-0.37,1.63-0.77,3.26-1.22,4.89c0,0.01-0.01,0.02-0.01,0.04c0,0.01-0.01,0.02-0.01,0.04
	c-0.23,0.9-0.48,1.79-0.73,2.67c-0.64,0.66-1.29,1.32-1.95,1.97c-0.01,0.01-0.02,0.02-0.03,0.03c-0.01,0.01-0.02,0.02-0.03,0.03
	c-1.18,1.2-2.39,2.37-3.62,3.5c0.5,1.6,0.96,3.21,1.39,4.84c0,0.01,0.01,0.02,0.01,0.04c0,0.01,0.01,0.02,0.01,0.04
	c0.25,0.89,0.48,1.79,0.7,2.68c-0.22,0.89-0.45,1.79-0.7,2.68c0,0.01-0.01,0.03-0.01,0.04c0,0.01-0.01,0.02-0.01,0.04
	c-0.42,1.63-0.89,3.25-1.39,4.84c1.23,1.13,2.44,2.3,3.62,3.5c0.01,0.01,0.02,0.02,0.03,0.03c0.01,0.01,0.02,0.02,0.03,0.03
	c0.66,0.65,1.31,1.31,1.95,1.97c0.26,0.89,0.5,1.78,0.73,2.67c0,0.01,0.01,0.02,0.01,0.04c0,0.01,0.01,0.02,0.01,0.04
	c0.45,1.63,0.85,3.26,1.22,4.89c1.63,0.37,3.26,0.77,4.89,1.22c0.01,0,0.02,0.01,0.04,0.01c0.01,0,0.02,0.01,0.04,0.01
	c0.9,0.23,1.79,0.48,2.67,0.73c0.66,0.64,1.32,1.29,1.97,1.95c0.01,0.01,0.02,0.02,0.03,0.03c0.01,0.01,0.02,0.02,0.03,0.03
	c1.2,1.18,2.37,2.39,3.5,3.62c1.6-0.5,3.21-0.96,4.84-1.39c0.01,0,0.02-0.01,0.04-0.01c0.01,0,0.02-0.01,0.04-0.01
	c0.89-0.25,1.79-0.48,2.68-0.7c0.89,0.22,1.79,0.45,2.68,0.7c0.01,0,0.03,0.01,0.04,0.01c0.01,0,0.02,0.01,0.04,0.01
	c1.63,0.42,3.25,0.89,4.84,1.39c1.13-1.23,2.3-2.44,3.5-3.62c0.01-0.01,0.02-0.02,0.03-0.03c0.01-0.01,0.02-0.02,0.03-0.03
	c0.65-0.66,1.31-1.31,1.97-1.95c0.89-0.26,1.78-0.5,2.67-0.73c0.01,0,0.02-0.01,0.04-0.01c0.01,0,0.02-0.01,0.04-0.01
	c1.63-0.45,3.26-0.85,4.89-1.22c0.37-1.63,0.77-3.26,1.22-4.89c0-0.01,0.01-0.02,0.01-0.04c0-0.01,0.01-0.02,0.01-0.04
	c0.23-0.9,0.48-1.79,0.73-2.67c0.64-0.66,1.29-1.32,1.95-1.97c0.01-0.01,0.02-0.02,0.03-0.03c0.01-0.01,0.02-0.02,0.03-0.03
	c1.18-1.2,2.39-2.37,3.62-3.5c-0.5-1.6-0.96-3.21-1.39-4.84c0-0.01-0.01-0.02-0.01-0.04c0-0.01-0.01-0.02-0.01-0.04
	c-0.25-0.89-0.48-1.79-0.7-2.68c0.22-0.89,0.45-1.79,0.7-2.68c0-0.01,0.01-0.03,0.01-0.04c0-0.01,0.01-0.02,0.01-0.04
	c0.42-1.63,0.89-3.25,1.39-4.84c-1.23-1.13-2.44-2.3-3.62-3.5c-0.01-0.01-0.02-0.02-0.03-0.03c-0.01-0.01-0.02-0.02-0.03-0.03
	c-0.66-0.65-1.31-1.31-1.95-1.97c-0.26-0.89-0.5-1.78-0.73-2.67c0-0.01-0.01-0.02-0.01-0.04c0-0.01-0.01-0.02-0.01-0.04
	c-0.45-1.63-0.85-3.26-1.22-4.89c-1.63-0.37-3.26-0.77-4.89-1.22c-0.01,0-0.02-0.01-0.04-0.01c-0.01,0-0.02-0.01-0.04-0.01
	c-0.9-0.23-1.79-0.48-2.67-0.73c-0.66-0.64-1.32-1.29-1.97-1.95c-0.01-0.01-0.02-0.02-0.03-0.03c-0.01-0.01-0.02-0.02-0.03-0.03
	c-1.2-1.18-2.37-2.39-3.5-3.62c-1.6,0.5-3.21,0.96-4.84,1.39c-0.01,0-0.02,0.01-0.04,0.01s-0.02,0.01-0.04,0.01
	C77.45,48.95,76.55,49.18,75.66,49.4z M66.07,39.87c0.45-1.96,0.9-3.92,1.34-5.88c-1.08-0.38-2.16-0.77-3.23-1.18
	c-0.73,0.88-1.47,1.76-2.21,2.64C63.33,36.92,64.7,38.4,66.07,39.87z M85.25,39.87c1.37-1.48,2.74-2.95,4.1-4.42
	c-0.75-0.87-1.48-1.75-2.21-2.64c-1.07,0.4-2.15,0.79-3.23,1.18C84.35,35.95,84.8,37.91,85.25,39.87z M101.85,49.46
	c1.92-0.59,3.85-1.18,5.77-1.78c-0.21-1.13-0.41-2.26-0.6-3.39c-1.13-0.19-2.26-0.39-3.39-0.6
	C103.04,45.61,102.45,47.54,101.85,49.46z M111.44,66.07c1.96,0.45,3.92,0.9,5.88,1.34c0.38-1.08,0.77-2.16,1.18-3.23
	c-0.89-0.73-1.76-1.47-2.64-2.21C114.39,63.33,112.92,64.7,111.44,66.07z M111.44,85.25c1.48,1.37,2.95,2.74,4.42,4.11
	c0.87-0.75,1.75-1.49,2.64-2.21c-0.4-1.07-0.79-2.15-1.18-3.23C115.37,84.35,113.41,84.8,111.44,85.25z M101.85,101.85
	c0.59,1.92,1.18,3.85,1.78,5.77c1.13-0.21,2.26-0.41,3.39-0.6c0.19-1.13,0.39-2.26,0.6-3.39
	C105.7,103.04,103.78,102.45,101.85,101.85z M85.25,111.44c-0.45,1.96-0.9,3.92-1.34,5.88c1.08,0.38,2.16,0.77,3.23,1.18
	c0.73-0.88,1.47-1.76,2.21-2.64C87.99,114.39,86.62,112.92,85.25,111.44z M66.07,111.44c-1.37,1.48-2.74,2.95-4.1,4.42
	c0.75,0.87,1.49,1.75,2.21,2.64c1.07-0.4,2.15-0.79,3.23-1.18C66.97,115.37,66.52,113.41,66.07,111.44z M49.46,101.85
	c-1.92,0.59-3.85,1.18-5.77,1.78c0.21,1.13,0.41,2.26,0.6,3.39c1.13,0.19,2.26,0.39,3.39,0.6C48.28,105.7,48.87,103.78,49.46,101.85
	z M39.87,85.25c-1.96-0.45-3.92-0.9-5.88-1.34c-0.38,1.08-0.77,2.16-1.18,3.23c0.88,0.73,1.76,1.47,2.64,2.21
	C36.92,87.99,38.4,86.62,39.87,85.25z M39.87,66.07c-1.48-1.37-2.95-2.74-4.42-4.1c-0.87,0.75-1.75,1.49-2.64,2.21
	c0.4,1.07,0.79,2.15,1.18,3.23C35.95,66.97,37.91,66.52,39.87,66.07z M49.46,49.46c-0.59-1.92-1.18-3.85-1.78-5.77
	c-1.13,0.21-2.26,0.41-3.39,0.6c-0.19,1.13-0.39,2.26-0.6,3.39C45.61,48.28,47.54,48.87,49.46,49.46z M63.33,29.66
	c1.55,0.6,3.1,1.17,4.67,1.73c0.68-2.98,1.36-5.97,2.04-8.95c-3.25-1.15-6.46-2.4-9.64-3.72c-2.09,2.73-4.24,5.41-6.49,8.04
	c2.08,2.24,4.16,4.49,6.24,6.73C61.23,32.23,62.29,30.95,63.33,29.66z M87.98,29.66c1.04,1.29,2.1,2.57,3.18,3.83
	c2.08-2.24,4.16-4.49,6.24-6.73c-2.24-2.63-4.4-5.31-6.49-8.04c-3.17,1.32-6.38,2.57-9.64,3.72c0.68,2.98,1.36,5.97,2.04,8.95
	C84.88,30.83,86.44,30.26,87.98,29.66z M109.33,41.98c0.26,1.64,0.53,3.27,0.84,4.9c2.92-0.9,5.85-1.8,8.77-2.71
	c-0.63-3.39-1.16-6.8-1.6-10.21c-3.41-0.44-6.81-0.97-10.21-1.6c-0.9,2.92-1.8,5.85-2.71,8.77
	C106.06,41.45,107.69,41.73,109.33,41.98z M121.66,63.33c-0.6,1.55-1.17,3.1-1.73,4.67c2.98,0.68,5.97,1.36,8.95,2.04
	c1.15-3.25,2.4-6.46,3.72-9.64c-2.73-2.09-5.41-4.24-8.04-6.49c-2.24,2.08-4.49,4.16-6.73,6.24
	C119.09,61.23,120.37,62.29,121.66,63.33z M121.66,87.98c-1.29,1.04-2.57,2.1-3.83,3.18c2.24,2.08,4.49,4.16,6.73,6.24
	c2.63-2.24,5.31-4.4,8.04-6.49c-1.32-3.17-2.57-6.38-3.72-9.64c-2.98,0.68-5.97,1.36-8.95,2.04
	C120.48,84.88,121.06,86.44,121.66,87.98z M109.33,109.33c-1.64,0.26-3.27,0.53-4.9,0.84c0.9,2.92,1.8,5.85,2.71,8.77
	c3.39-0.63,6.8-1.16,10.21-1.6c0.44-3.41,0.97-6.81,1.6-10.21c-2.92-0.9-5.85-1.8-8.77-2.71
	C109.87,106.06,109.59,107.69,109.33,109.33z M87.98,121.66c-1.55-0.6-3.1-1.17-4.67-1.73c-0.68,2.98-1.36,5.97-2.04,8.95
	c3.25,1.15,6.46,2.4,9.64,3.72c2.09-2.73,4.24-5.41,6.49-8.04c-2.08-2.24-4.16-4.49-6.24-6.73
	C90.08,119.09,89.02,120.37,87.98,121.66z M63.33,121.66c-1.04-1.29-2.1-2.57-3.18-3.83c-2.08,2.24-4.16,4.49-6.24,6.73
	c2.24,2.63,4.4,5.31,6.49,8.04c3.17-1.32,6.38-2.57,9.64-3.72c-0.68-2.98-1.36-5.97-2.04-8.95
	C66.43,120.48,64.88,121.06,63.33,121.66z M41.98,109.33c-0.26-1.64-0.53-3.27-0.84-4.9c-2.92,0.9-5.85,1.8-8.77,2.71
	c0.63,3.39,1.16,6.8,1.6,10.21c3.41,0.44,6.81,0.97,10.21,1.6c0.9-2.92,1.8-5.85,2.71-8.77C45.26,109.87,43.62,109.59,41.98,109.33z
	 M29.66,87.98c0.6-1.55,1.17-3.1,1.73-4.67c-2.98-0.68-5.97-1.36-8.95-2.04c-1.15,3.25-2.4,6.46-3.72,9.64
	c2.73,2.09,5.41,4.24,8.04,6.49c2.24-2.08,4.49-4.16,6.73-6.24C32.23,90.08,30.95,89.02,29.66,87.98z M29.66,63.33
	c1.29-1.04,2.57-2.1,3.83-3.18c-2.24-2.08-4.49-4.16-6.73-6.24c-2.63,2.24-5.31,4.4-8.04,6.49c1.32,3.17,2.57,6.38,3.72,9.64
	c2.98-0.68,5.97-1.36,8.95-2.04C30.83,66.43,30.26,64.88,29.66,63.33z M41.98,41.98c1.64-0.26,3.27-0.53,4.9-0.84
	c-0.9-2.92-1.8-5.85-2.71-8.77c-3.39,0.63-6.8,1.16-10.21,1.6c-0.44,3.41-0.97,6.81-1.6,10.21c2.92,0.9,5.85,1.8,8.77,2.71
	C41.45,45.26,41.73,43.62,41.98,41.98z M59.53,15.48c3.65,1.56,7.34,3.02,11.1,4.35c0.63-2.78,1.26-5.55,1.89-8.33
	c-5.4-1.9-10.64-4.14-15.81-6.54c-3.27,4.67-6.69,9.22-10.42,13.57c1.94,2.09,3.87,4.17,5.8,6.27
	C54.68,21.77,57.15,18.66,59.53,15.48z M91.78,15.48c2.38,3.18,4.85,6.29,7.44,9.32c1.93-2.09,3.87-4.18,5.8-6.27
	c-3.73-4.35-7.15-8.91-10.42-13.57c-5.17,2.4-10.41,4.64-15.81,6.54c0.63,2.78,1.27,5.55,1.89,8.33
	C84.44,18.5,88.13,17.04,91.78,15.48z M119.71,31.61c0.47,3.94,1.06,7.87,1.78,11.79c2.72-0.85,5.44-1.69,8.16-2.53
	c-1.05-5.63-1.74-11.29-2.24-16.96c-5.68-0.5-11.34-1.18-16.96-2.24c-0.84,2.72-1.68,5.44-2.53,8.16
	C111.84,30.55,115.77,31.13,119.71,31.61z M135.83,59.53c-1.56,3.65-3.02,7.34-4.35,11.1c2.78,0.63,5.55,1.26,8.33,1.89
	c1.9-5.4,4.14-10.64,6.54-15.81c-4.67-3.27-9.22-6.69-13.57-10.42c-2.09,1.94-4.17,3.87-6.27,5.8
	C129.55,54.68,132.66,57.15,135.83,59.53z M135.83,91.78c-3.18,2.38-6.29,4.85-9.32,7.44c2.09,1.93,4.18,3.87,6.27,5.8
	c4.35-3.73,8.91-7.15,13.57-10.42c-2.4-5.17-4.64-10.41-6.54-15.81c-2.78,0.63-5.55,1.27-8.33,1.89
	C132.81,84.44,134.27,88.13,135.83,91.78z M119.71,119.71c-3.94,0.47-7.87,1.06-11.79,1.78c0.85,2.72,1.69,5.44,2.53,8.16
	c5.63-1.05,11.29-1.74,16.96-2.24c0.5-5.68,1.18-11.34,2.24-16.96c-2.72-0.84-5.44-1.68-8.16-2.53
	C120.77,111.84,120.18,115.77,119.71,119.71z M91.78,135.83c-3.65-1.56-7.34-3.02-11.1-4.35c-0.63,2.78-1.26,5.55-1.89,8.33
	c5.4,1.9,10.64,4.14,15.81,6.54c3.27-4.67,6.69-9.22,10.42-13.57c-1.94-2.09-3.87-4.17-5.8-6.27
	C96.63,129.55,94.16,132.66,91.78,135.83z M59.53,135.83c-2.38-3.18-4.85-6.29-7.44-9.32c-1.93,2.09-3.87,4.18-5.8,6.27
	c3.73,4.35,7.15,8.91,10.42,13.57c5.17-2.4,10.41-4.64,15.81-6.54c-0.63-2.78-1.27-5.55-1.89-8.33
	C66.88,132.81,63.18,134.27,59.53,135.83z M31.61,119.71c-0.47-3.94-1.06-7.87-1.78-11.79c-2.72,0.85-5.44,1.69-8.16,2.53
	c1.05,5.63,1.74,11.29,2.24,16.96c5.68,0.5,11.34,1.18,16.96,2.24c0.84-2.72,1.68-5.44,2.52-8.16
	C39.48,120.77,35.55,120.18,31.61,119.71z M15.48,91.78c1.56-3.65,3.02-7.34,4.35-11.1c-2.78-0.63-5.55-1.26-8.33-1.89
	c-1.9,5.4-4.14,10.64-6.54,15.81c4.67,3.27,9.22,6.69,13.57,10.42c2.09-1.94,4.17-3.87,6.27-5.8
	C21.77,96.63,18.66,94.16,15.48,91.78z M15.48,59.53c3.18-2.38,6.29-4.85,9.32-7.44c-2.09-1.93-4.18-3.87-6.27-5.8
	c-4.35,3.73-8.91,7.15-13.57,10.42c2.4,5.17,4.64,10.41,6.54,15.81c2.78-0.63,5.55-1.27,8.33-1.89
	C18.5,66.88,17.04,63.18,15.48,59.53z M31.61,31.61c3.94-0.47,7.87-1.06,11.79-1.78c-0.85-2.72-1.69-5.44-2.52-8.16
	c-5.63,1.05-11.29,1.74-16.96,2.24c-0.5,5.68-1.18,11.34-2.24,16.96c2.72,0.84,5.44,1.68,8.16,2.53
	C30.55,39.48,31.13,35.55,31.61,31.61z M75.66,15.68c-2.11,9.28-4.23,18.55-6.34,27.83c1.53,0.48,3.07,0.93,4.64,1.34
	c0,0,0.01,0,0.01,0c0,0,0.01,0,0.01,0c0.56,0.15,1.12,0.3,1.68,0.44c0.56-0.14,1.12-0.29,1.68-0.44c0,0,0.01,0,0.01,0
	c0,0,0.01,0,0.01,0c1.56-0.41,3.1-0.86,4.64-1.34C79.89,34.23,77.77,24.95,75.66,15.68z M105.65,23.71
	c-6.47,6.98-12.94,13.95-19.4,20.93c1.09,1.18,2.2,2.34,3.35,3.48c0,0,0.01,0.01,0.01,0.01c0,0,0.01,0.01,0.01,0.01
	c0.41,0.41,0.82,0.82,1.23,1.22c0.56,0.16,1.11,0.31,1.67,0.45c0,0,0.01,0,0.01,0c0,0,0.01,0,0.01,0c1.56,0.43,3.12,0.81,4.68,1.16
	C100.03,41.89,102.84,32.8,105.65,23.71z M127.6,45.67c-9.09,2.81-18.18,5.61-27.27,8.42c0.35,1.57,0.73,3.13,1.16,4.68
	c0,0,0,0.01,0,0.01c0,0,0,0.01,0,0.01c0.15,0.56,0.3,1.12,0.45,1.67c0.4,0.41,0.81,0.82,1.22,1.23c0,0,0.01,0.01,0.01,0.01
	c0,0,0.01,0.01,0.01,0.01c1.13,1.15,2.3,2.26,3.48,3.35C113.65,58.6,120.62,52.13,127.6,45.67z M135.64,75.66
	c-9.28-2.11-18.55-4.23-27.83-6.34c-0.48,1.53-0.93,3.07-1.34,4.64c0,0,0,0.01,0,0.01c0,0,0,0.01,0,0.01
	c-0.15,0.56-0.3,1.12-0.44,1.68c0.14,0.56,0.29,1.12,0.44,1.68c0,0,0,0.01,0,0.01c0,0,0,0.01,0,0.01c0.41,1.56,0.86,3.1,1.34,4.64
	C117.09,79.89,126.36,77.77,135.64,75.66z M127.6,105.65c-6.98-6.47-13.95-12.94-20.93-19.4c-1.18,1.09-2.34,2.2-3.48,3.35
	c0,0-0.01,0.01-0.01,0.01c0,0-0.01,0.01-0.01,0.01c-0.41,0.41-0.82,0.82-1.22,1.23c-0.16,0.56-0.31,1.11-0.45,1.67
	c0,0,0,0.01,0,0.01c0,0,0,0.01,0,0.01c-0.43,1.56-0.81,3.12-1.16,4.68C109.42,100.03,118.51,102.84,127.6,105.65z M105.65,127.6
	c-2.81-9.09-5.61-18.18-8.42-27.27c-1.57,0.35-3.13,0.73-4.68,1.16c0,0-0.01,0-0.01,0c0,0-0.01,0-0.01,0
	c-0.56,0.15-1.12,0.3-1.67,0.45c-0.41,0.4-0.82,0.81-1.23,1.22c0,0-0.01,0.01-0.01,0.01c0,0-0.01,0.01-0.01,0.01
	c-1.15,1.13-2.26,2.3-3.35,3.48C92.71,113.65,99.18,120.62,105.65,127.6z M75.66,135.64c2.11-9.28,4.23-18.55,6.34-27.83
	c-1.53-0.48-3.07-0.93-4.64-1.34c0,0-0.01,0-0.01,0c0,0-0.01,0-0.01,0c-0.56-0.15-1.12-0.3-1.68-0.44
	c-0.56,0.14-1.12,0.29-1.68,0.44c0,0-0.01,0-0.01,0c0,0-0.01,0-0.01,0c-1.56,0.41-3.1,0.86-4.64,1.34
	C71.43,117.09,73.55,126.36,75.66,135.64z M45.67,127.6c6.47-6.98,12.94-13.95,19.4-20.93c-1.09-1.18-2.2-2.34-3.35-3.48
	c0,0-0.01-0.01-0.01-0.01c0,0-0.01-0.01-0.01-0.01c-0.41-0.41-0.82-0.82-1.23-1.22c-0.56-0.16-1.11-0.31-1.67-0.45
	c0,0-0.01,0-0.01,0c0,0-0.01,0-0.01,0c-1.56-0.43-3.12-0.81-4.68-1.16C51.28,109.42,48.48,118.51,45.67,127.6z M23.71,105.65
	c9.09-2.81,18.18-5.61,27.27-8.42c-0.35-1.57-0.73-3.13-1.16-4.68c0,0,0-0.01,0-0.01c0,0,0-0.01,0-0.01
	c-0.15-0.56-0.3-1.12-0.45-1.67c-0.4-0.41-0.81-0.82-1.22-1.23c0,0-0.01-0.01-0.01-0.01c0,0-0.01-0.01-0.01-0.01
	c-1.13-1.15-2.3-2.26-3.48-3.35C37.67,92.71,30.69,99.18,23.71,105.65z M15.68,75.66c9.28,2.11,18.55,4.23,27.83,6.34
	c0.48-1.53,0.93-3.07,1.34-4.64c0,0,0-0.01,0-0.01c0,0,0-0.01,0-0.01c0.15-0.56,0.3-1.12,0.44-1.68c-0.14-0.56-0.29-1.12-0.44-1.68
	c0,0,0-0.01,0-0.01c0,0,0-0.01,0-0.01c-0.41-1.56-0.86-3.1-1.34-4.64C34.23,71.43,24.95,73.55,15.68,75.66z M23.71,45.67
	c6.98,6.47,13.95,12.94,20.93,19.4c1.18-1.09,2.34-2.2,3.48-3.35c0,0,0.01-0.01,0.01-0.01c0,0,0.01-0.01,0.01-0.01
	c0.41-0.41,0.82-0.82,1.22-1.23c0.16-0.56,0.31-1.11,0.45-1.67c0,0,0-0.01,0-0.01c0,0,0-0.01,0-0.01c0.43-1.56,0.81-3.12,1.16-4.68
	C41.89,51.28,32.8,48.48,23.71,45.67z M45.67,23.71c2.81,9.09,5.61,18.18,8.42,27.27c1.57-0.35,3.13-0.73,4.68-1.16
	c0,0,0.01,0,0.01,0c0,0,0.01,0,0.01,0c0.56-0.15,1.12-0.3,1.67-0.45c0.41-0.4,0.82-0.81,1.23-1.22c0,0,0.01-0.01,0.01-0.01
	c0,0,0.01-0.01,0.01-0.01c1.15-1.13,2.26-2.3,3.35-3.48C58.6,37.67,52.13,30.69,45.67,23.71z"/>
<path class="st0" d="M68.06,47.29c1.6,0.5,3.21,0.96,4.84,1.39c0.01,0,0.02,0.01,0.04,0.01c0.01,0,0.02,0.01,0.04,0.01
	c0.89,0.25,1.79,0.48,2.68,0.7c0.89-0.22,1.79-0.45,2.68-0.7c0.01,0,0.03-0.01,0.04-0.01s0.02-0.01,0.04-0.01
	c1.63-0.42,3.25-0.89,4.84-1.39c1.13,1.23,2.3,2.44,3.5,3.62c0.01,0.01,0.02,0.02,0.03,0.03c0.01,0.01,0.02,0.02,0.03,0.03
	c0.65,0.66,1.31,1.31,1.97,1.95c0.89,0.26,1.78,0.5,2.67,0.73c0.01,0,0.02,0.01,0.04,0.01c0.01,0,0.02,0.01,0.04,0.01
	c1.63,0.45,3.26,0.85,4.89,1.22c0.37,1.63,0.77,3.26,1.22,4.89c0,0.01,0.01,0.02,0.01,0.04c0,0.01,0.01,0.02,0.01,0.04
	c0.23,0.9,0.48,1.79,0.73,2.67c0.64,0.66,1.29,1.32,1.95,1.97c0.01,0.01,0.02,0.02,0.03,0.03c0.01,0.01,0.02,0.02,0.03,0.03
	c1.18,1.2,2.39,2.37,3.62,3.5c-0.5,1.6-0.96,3.21-1.39,4.84c0,0.01-0.01,0.02-0.01,0.04c0,0.01-0.01,0.02-0.01,0.04
	c-0.25,0.89-0.48,1.79-0.7,2.68c0.22,0.89,0.45,1.79,0.7,2.68c0,0.01,0.01,0.03,0.01,0.04c0,0.01,0.01,0.02,0.01,0.04
	c0.42,1.63,0.89,3.25,1.39,4.84c-1.23,1.13-2.44,2.3-3.62,3.5c-0.01,0.01-0.02,0.02-0.03,0.03c-0.01,0.01-0.02,0.02-0.03,0.03
	c-0.66,0.65-1.31,1.31-1.95,1.97c-0.26,0.89-0.5,1.78-0.73,2.67c0,0.01-0.01,0.02-0.01,0.04c0,0.01-0.01,0.02-0.01,0.04
	c-0.45,1.63-0.85,3.26-1.22,4.89c-1.63,0.37-3.26,0.77-4.89,1.22c-0.01,0-0.02,0.01-0.04,0.01c-0.01,0-0.02,0.01-0.04,0.01
	c-0.9,0.23-1.79,0.48-2.67,0.73c-0.66,0.64-1.32,1.29-1.97,1.95c-0.01,0.01-0.02,0.02-0.03,0.03c-0.01,0.01-0.02,0.02-0.03,0.03
	c-1.2,1.18-2.37,2.39-3.5,3.62c-1.6-0.5-3.21-0.96-4.84-1.39c-0.01,0-0.02-0.01-0.04-0.01c-0.01,0-0.02-0.01-0.04-0.01
	c-0.89-0.25-1.79-0.48-2.68-0.7c-0.89,0.22-1.79,0.45-2.68,0.7c-0.01,0-0.02,0.01-0.04,0.01c-0.01,0-0.02,0.01-0.04,0.01
	c-1.63,0.42-3.25,0.89-4.84,1.39c-1.13-1.23-2.3-2.44-3.5-3.62c-0.01-0.01-0.02-0.02-0.03-0.03c-0.01-0.01-0.02-0.02-0.03-0.03
	c-0.65-0.66-1.31-1.31-1.97-1.95c-0.89-0.26-1.78-0.5-2.67-0.73c-0.01,0-0.02-0.01-0.04-0.01c-0.01,0-0.02-0.01-0.04-0.01
	c-1.63-0.45-3.26-0.85-4.89-1.22c-0.37-1.63-0.77-3.26-1.22-4.89c0-0.01-0.01-0.02-0.01-0.04c0-0.01-0.01-0.02-0.01-0.04
	c-0.23-0.9-0.48-1.79-0.73-2.67c-0.64-0.66-1.29-1.32-1.95-1.97c-0.01-0.01-0.02-0.02-0.03-0.03c-0.01-0.01-0.02-0.02-0.03-0.03
	c-1.18-1.2-2.39-2.37-3.62-3.5c0.5-1.6,0.96-3.21,1.39-4.84c0-0.01,0.01-0.02,0.01-0.04c0-0.01,0.01-0.02,0.01-0.04
	c0.25-0.89,0.48-1.79,0.7-2.68c-0.22-0.89-0.45-1.79-0.7-2.68c0-0.01-0.01-0.03-0.01-0.04c0-0.01-0.01-0.02-0.01-0.04
	c-0.42-1.63-0.89-3.25-1.39-4.84c1.23-1.13,2.44-2.3,3.62-3.5c0.01-0.01,0.02-0.02,0.03-0.03c0.01-0.01,0.02-0.02,0.03-0.03
	c0.66-0.65,1.31-1.31,1.95-1.97c0.26-0.89,0.5-1.78,0.73-2.67c0-0.01,0.01-0.02,0.01-0.04c0-0.01,0.01-0.02,0.01-0.04
	c0.45-1.63,0.85-3.26,1.22-4.89c1.63-0.37,3.26-0.77,4.89-1.22c0.01,0,0.02-0.01,0.04-0.01c0.01,0,0.02-0.01,0.04-0.01
	c0.9-0.23,1.79-0.48,2.67-0.73c0.66-0.64,1.32-1.29,1.97-1.95c0.01-0.01,0.02-0.02,0.03-0.03c0.01-0.01,0.02-0.02,0.03-0.03
	C65.76,49.73,66.92,48.52,68.06,47.29z M75.66,71.61c-0.39-0.1-0.78-0.2-1.17-0.3c-0.29,0.28-0.57,0.56-0.86,0.84
	c-0.39,0.11-0.77,0.21-1.16,0.32c-0.11,0.39-0.21,0.77-0.32,1.16c-0.28,0.29-0.56,0.57-0.84,0.86c0.1,0.39,0.2,0.78,0.3,1.17
	c-0.1,0.39-0.2,0.78-0.3,1.17c0.28,0.29,0.56,0.57,0.84,0.86c0.11,0.39,0.21,0.77,0.32,1.16c0.39,0.11,0.77,0.21,1.16,0.32
	c0.29,0.28,0.57,0.56,0.86,0.84c0.39-0.1,0.78-0.2,1.17-0.3c0.39,0.1,0.78,0.2,1.17,0.3c0.29-0.28,0.57-0.56,0.86-0.84
	c0.39-0.11,0.77-0.21,1.16-0.32c0.11-0.39,0.21-0.77,0.32-1.16c0.28-0.29,0.56-0.57,0.84-0.86c-0.1-0.39-0.2-0.78-0.3-1.17
	c0.1-0.39,0.2-0.78,0.3-1.17c-0.28-0.29-0.56-0.57-0.84-0.86c-0.11-0.39-0.21-0.77-0.32-1.16c-0.39-0.11-0.77-0.21-1.16-0.32
	c-0.29-0.28-0.57-0.56-0.86-0.84C76.43,71.41,76.05,71.51,75.66,71.61z M72.21,62.78c1.41-0.6,2.56-1.84,2.96-3.36
	c0.67-2.49-0.68-4.8-2.86-5.87c-0.15-0.12-0.34-0.22-0.58-0.26c-0.01,0-0.01,0-0.02-0.01c-0.01,0-0.01,0-0.02,0
	c-0.23-0.08-0.44-0.09-0.63-0.06c-0.47-0.03-0.94-0.01-1.39,0.07c-0.43,0.16-0.85,0.37-1.24,0.64c-0.18,0.07-0.36,0.19-0.52,0.37
	c0,0-0.01,0.01-0.01,0.01c0,0-0.01,0.01-0.01,0.01c-0.18,0.16-0.3,0.33-0.37,0.52c-1.36,2.01-1.36,4.69,0.46,6.51
	C69.07,62.46,70.68,62.96,72.21,62.78z M79.11,62.78c1.52,0.18,3.13-0.31,4.24-1.43c1.82-1.82,1.82-4.5,0.46-6.51
	c-0.07-0.18-0.19-0.36-0.37-0.52c0,0-0.01-0.01-0.01-0.01c0,0-0.01-0.01-0.01-0.01c-0.16-0.18-0.33-0.3-0.52-0.37
	c-0.39-0.26-0.81-0.48-1.24-0.64c-0.45-0.08-0.92-0.1-1.39-0.07c-0.2-0.03-0.41-0.02-0.63,0.06c-0.01,0-0.01,0-0.02,0
	c-0.01,0-0.01,0-0.02,0.01c-0.24,0.05-0.43,0.14-0.58,0.26c-2.19,1.06-3.53,3.38-2.86,5.87C76.55,60.94,77.7,62.18,79.11,62.78z
	 M85.09,66.23c1.23,0.92,2.87,1.29,4.39,0.88c2.49-0.66,3.82-2.99,3.65-5.41c0.03-0.2,0.02-0.41-0.06-0.63c0-0.01,0-0.01,0-0.02
	c0-0.01,0-0.01-0.01-0.02c-0.05-0.24-0.14-0.43-0.26-0.58c-0.21-0.43-0.46-0.82-0.76-1.17c-0.35-0.29-0.75-0.55-1.17-0.76
	c-0.15-0.12-0.34-0.22-0.58-0.26c-0.01,0-0.01,0-0.02-0.01c-0.01,0-0.01,0-0.02,0c-0.23-0.08-0.44-0.09-0.63-0.06
	c-2.42-0.17-4.75,1.17-5.41,3.65C83.79,63.36,84.16,65,85.09,66.23z M88.54,72.21c0.6,1.41,1.84,2.56,3.36,2.96
	c2.49,0.67,4.8-0.68,5.87-2.86c0.12-0.15,0.22-0.34,0.26-0.58c0-0.01,0-0.01,0.01-0.02c0-0.01,0-0.01,0-0.02
	c0.08-0.23,0.09-0.44,0.06-0.63c0.03-0.47,0.01-0.94-0.07-1.39c-0.16-0.43-0.37-0.85-0.64-1.24c-0.07-0.18-0.19-0.36-0.37-0.52
	c0,0-0.01-0.01-0.01-0.01c0,0-0.01-0.01-0.01-0.01c-0.16-0.18-0.33-0.3-0.52-0.37c-2.01-1.36-4.69-1.36-6.51,0.46
	C88.85,69.07,88.35,70.68,88.54,72.21z M88.54,79.11c-0.18,1.52,0.31,3.13,1.43,4.24c1.82,1.82,4.5,1.82,6.51,0.46
	c0.18-0.07,0.36-0.19,0.52-0.37c0,0,0.01-0.01,0.01-0.01c0,0,0.01-0.01,0.01-0.01c0.18-0.16,0.3-0.33,0.37-0.52
	c0.26-0.39,0.48-0.81,0.64-1.24c0.08-0.45,0.1-0.92,0.07-1.39c0.03-0.2,0.02-0.41-0.06-0.63c0-0.01,0-0.01,0-0.02
	c0-0.01,0-0.01-0.01-0.02c-0.05-0.24-0.14-0.43-0.26-0.58c-1.06-2.19-3.38-3.53-5.87-2.86C90.38,76.55,89.14,77.7,88.54,79.11z
	 M85.09,85.09c-0.92,1.23-1.29,2.87-0.88,4.39c0.66,2.49,2.99,3.82,5.41,3.65c0.2,0.03,0.41,0.02,0.63-0.06c0.01,0,0.01,0,0.02,0
	c0.01,0,0.01,0,0.02-0.01c0.24-0.05,0.43-0.14,0.58-0.26c0.43-0.21,0.82-0.46,1.17-0.76c0.29-0.35,0.55-0.75,0.76-1.17
	c0.12-0.15,0.22-0.34,0.26-0.58c0-0.01,0-0.01,0.01-0.02c0-0.01,0-0.01,0-0.02c0.08-0.23,0.09-0.44,0.06-0.63
	c0.17-2.42-1.17-4.75-3.65-5.41C87.96,83.79,86.31,84.16,85.09,85.09z M79.11,88.54c-1.41,0.6-2.56,1.84-2.96,3.36
	c-0.67,2.49,0.67,4.8,2.86,5.87c0.15,0.12,0.34,0.22,0.58,0.26c0.01,0,0.01,0,0.02,0.01c0.01,0,0.01,0,0.02,0
	c0.23,0.08,0.44,0.09,0.63,0.06c0.47,0.03,0.94,0.01,1.39-0.07c0.43-0.16,0.85-0.37,1.24-0.64c0.19-0.07,0.36-0.19,0.52-0.37
	c0,0,0.01-0.01,0.01-0.01c0,0,0.01-0.01,0.01-0.01c0.18-0.16,0.3-0.33,0.37-0.52c1.36-2.01,1.36-4.69-0.46-6.51
	C82.24,88.85,80.63,88.35,79.11,88.54z M72.21,88.54c-1.52-0.18-3.13,0.31-4.24,1.43c-1.82,1.82-1.82,4.5-0.46,6.51
	c0.07,0.18,0.19,0.36,0.37,0.52c0,0,0.01,0.01,0.01,0.01c0,0,0.01,0.01,0.01,0.01c0.16,0.18,0.33,0.3,0.52,0.37
	c0.39,0.26,0.81,0.48,1.24,0.64c0.45,0.08,0.92,0.1,1.39,0.07c0.2,0.03,0.41,0.02,0.63-0.06c0.01,0,0.01,0,0.02,0
	c0.01,0,0.01,0,0.02-0.01c0.24-0.05,0.43-0.14,0.58-0.26c2.19-1.06,3.53-3.38,2.86-5.87C74.76,90.38,73.62,89.14,72.21,88.54z
	 M66.23,85.09c-1.23-0.92-2.87-1.29-4.39-0.88c-2.49,0.66-3.82,2.99-3.65,5.41c-0.03,0.2-0.02,0.41,0.06,0.63c0,0.01,0,0.01,0,0.02
	c0,0.01,0,0.01,0.01,0.02c0.05,0.24,0.14,0.43,0.26,0.58c0.21,0.43,0.46,0.82,0.76,1.17c0.35,0.29,0.75,0.55,1.17,0.76
	c0.15,0.12,0.34,0.22,0.58,0.26c0.01,0,0.01,0,0.02,0.01c0.01,0,0.01,0,0.02,0c0.23,0.08,0.44,0.09,0.63,0.06
	c2.42,0.17,4.75-1.17,5.41-3.65C67.52,87.96,67.15,86.31,66.23,85.09z M62.78,79.11c-0.6-1.41-1.84-2.56-3.36-2.96
	c-2.49-0.67-4.8,0.67-5.87,2.86c-0.12,0.15-0.22,0.34-0.26,0.58c0,0.01,0,0.01-0.01,0.02c0,0.01,0,0.01,0,0.02
	c-0.08,0.23-0.09,0.44-0.06,0.63c-0.03,0.47-0.01,0.94,0.07,1.39c0.16,0.43,0.37,0.85,0.64,1.24c0.07,0.18,0.19,0.36,0.37,0.52
	c0,0,0.01,0.01,0.01,0.01c0,0,0.01,0.01,0.01,0.01c0.16,0.18,0.33,0.3,0.52,0.37c2.01,1.36,4.69,1.36,6.51-0.46
	C62.46,82.24,62.96,80.63,62.78,79.11z M62.78,72.21c0.18-1.52-0.31-3.13-1.43-4.24c-1.82-1.82-4.5-1.82-6.51-0.46
	c-0.18,0.07-0.36,0.19-0.52,0.37c0,0-0.01,0.01-0.01,0.01c0,0-0.01,0.01-0.01,0.01c-0.18,0.16-0.3,0.33-0.37,0.52
	c-0.27,0.39-0.48,0.81-0.64,1.24c-0.08,0.45-0.1,0.92-0.07,1.39c-0.03,0.2-0.02,0.41,0.06,0.63c0,0.01,0,0.01,0,0.02
	c0,0.01,0,0.01,0.01,0.02c0.05,0.24,0.14,0.43,0.26,0.58c1.06,2.19,3.38,3.53,5.87,2.86C60.94,74.76,62.18,73.62,62.78,72.21z
	 M66.23,66.23c0.92-1.23,1.29-2.87,0.88-4.39c-0.66-2.49-2.99-3.82-5.41-3.65c-0.2-0.03-0.41-0.02-0.63,0.06c-0.01,0-0.01,0-0.02,0
	c-0.01,0-0.01,0-0.02,0.01c-0.24,0.05-0.43,0.14-0.58,0.26c-0.43,0.21-0.82,0.46-1.17,0.76c-0.29,0.35-0.55,0.75-0.76,1.17
	c-0.12,0.15-0.22,0.34-0.26,0.58c0,0.01,0,0.01-0.01,0.02c0,0.01,0,0.01,0,0.02c-0.08,0.23-0.09,0.44-0.06,0.63
	c-0.17,2.42,1.17,4.75,3.65,5.41C63.36,67.52,65,67.15,66.23,66.23z"/>
<path class="st2" d="M74.49,71.31c0.39,0.1,0.78,0.2,1.17,0.3c0.39-0.1,0.78-0.2,1.17-0.3c0.29,0.28,0.57,0.56,0.86,0.84
	c0.39,0.11,0.77,0.21,1.16,0.32c0.11,0.39,0.21,0.77,0.32,1.16c0.28,0.29,0.56,0.57,0.84,0.86c-0.1,0.39-0.2,0.78-0.3,1.17
	c0.1,0.39,0.2,0.78,0.3,1.17c-0.28,0.29-0.56,0.57-0.84,0.86c-0.11,0.39-0.21,0.77-0.32,1.16c-0.39,0.11-0.77,0.21-1.16,0.32
	c-0.29,0.28-0.57,0.56-0.86,0.84c-0.39-0.1-0.78-0.2-1.17-0.3c-0.39,0.1-0.78,0.2-1.17,0.3c-0.29-0.28-0.57-0.56-0.86-0.84
	c-0.39-0.11-0.77-0.21-1.16-0.32c-0.11-0.39-0.21-0.77-0.32-1.16c-0.28-0.29-0.56-0.57-0.84-0.86c0.1-0.39,0.2-0.78,0.3-1.17
	c-0.1-0.39-0.2-0.78-0.3-1.17c0.28-0.29,0.56-0.57,0.84-0.86c0.11-0.39,0.21-0.77,0.32-1.16c0.39-0.11,0.77-0.21,1.16-0.32
	C73.92,71.87,74.21,71.59,74.49,71.31z"/>
<path class="st3" d="M66.07,39.87c0.45-1.96,0.9-3.92,1.34-5.88c-1.08-0.38-2.16-0.77-3.23-1.18c-0.73,0.88-1.47,1.76-2.21,2.64
	C63.33,36.92,64.7,38.4,66.07,39.87z"/>
<path class="st3" d="M85.25,39.87c1.37-1.48,2.74-2.95,4.1-4.42c-0.75-0.87-1.48-1.75-2.21-2.64c-1.07,0.4-2.15,0.79-3.23,1.18
	C84.35,35.95,84.8,37.91,85.25,39.87z"/>
<path class="st3" d="M101.85,49.46c1.92-0.59,3.85-1.18,5.77-1.78c-0.21-1.13-0.41-2.26-0.6-3.39c-1.13-0.19-2.26-0.39-3.39-0.6
	C103.04,45.61,102.45,47.54,101.85,49.46z"/>
<path class="st3" d="M111.44,66.07c1.96,0.45,3.92,0.9,5.88,1.34c0.38-1.08,0.77-2.16,1.18-3.23c-0.89-0.73-1.76-1.47-2.64-2.21
	C114.39,63.33,112.92,64.7,111.44,66.07z"/>
<path class="st3" d="M111.44,85.25c1.48,1.37,2.95,2.74,4.42,4.11c0.87-0.75,1.75-1.49,2.64-2.21c-0.4-1.07-0.79-2.15-1.18-3.23
	C115.37,84.35,113.41,84.8,111.44,85.25z"/>
<path class="st3" d="M101.85,101.85c0.59,1.92,1.18,3.85,1.78,5.77c1.13-0.21,2.26-0.41,3.39-0.6c0.19-1.13,0.39-2.26,0.6-3.39
	C105.7,103.04,103.78,102.45,101.85,101.85z"/>
<path class="st3" d="M85.25,111.44c-0.45,1.96-0.9,3.92-1.34,5.88c1.08,0.38,2.16,0.77,3.23,1.18c0.73-0.88,1.47-1.76,2.21-2.64
	C87.99,114.39,86.62,112.92,85.25,111.44z"/>
<path class="st3" d="M66.07,111.44c-1.37,1.48-2.74,2.95-4.1,4.42c0.75,0.87,1.49,1.75,2.21,2.64c1.07-0.4,2.15-0.79,3.23-1.18
	C66.97,115.37,66.52,113.41,66.07,111.44z"/>
<path class="st3" d="M49.46,101.85c-1.92,0.59-3.85,1.18-5.77,1.78c0.21,1.13,0.41,2.26,0.6,3.39c1.13,0.19,2.26,0.39,3.39,0.6
	C48.28,105.7,48.87,103.78,49.46,101.85z"/>
<path class="st3" d="M39.87,85.25c-1.96-0.45-3.92-0.9-5.88-1.34c-0.38,1.08-0.77,2.16-1.18,3.23c0.88,0.73,1.76,1.47,2.64,2.21
	C36.92,87.99,38.4,86.62,39.87,85.25z"/>
<path class="st3" d="M39.87,66.07c-1.48-1.37-2.95-2.74-4.42-4.1c-0.87,0.75-1.75,1.49-2.64,2.21c0.4,1.07,0.79,2.15,1.18,3.23
	C35.95,66.97,37.91,66.52,39.87,66.07z"/>
<path class="st3" d="M49.46,49.46c-0.59-1.92-1.18-3.85-1.78-5.77c-1.13,0.21-2.26,0.41-3.39,0.6c-0.19,1.13-0.39,2.26-0.6,3.39
	C45.61,48.28,47.54,48.87,49.46,49.46z"/>
<path class="st4" d="M63.33,29.66c1.55,0.6,3.1,1.17,4.67,1.73c0.68-2.98,1.36-5.97,2.04-8.95c-3.25-1.15-6.46-2.4-9.64-3.72
	c-2.09,2.73-4.24,5.41-6.49,8.04c2.08,2.24,4.16,4.49,6.24,6.73C61.23,32.23,62.29,30.95,63.33,29.66z"/>
<path class="st4" d="M87.98,29.66c1.04,1.29,2.1,2.57,3.18,3.83c2.08-2.24,4.16-4.49,6.24-6.73c-2.24-2.63-4.4-5.31-6.49-8.04
	c-3.17,1.32-6.38,2.57-9.64,3.72c0.68,2.98,1.36,5.97,2.04,8.95C84.88,30.83,86.44,30.26,87.98,29.66z"/>
<path class="st4" d="M109.33,41.98c0.26,1.64,0.53,3.27,0.84,4.9c2.92-0.9,5.85-1.8,8.77-2.71c-0.63-3.39-1.16-6.8-1.6-10.21
	c-3.41-0.44-6.81-0.97-10.21-1.6c-0.9,2.92-1.8,5.85-2.71,8.77C106.06,41.45,107.69,41.73,109.33,41.98z"/>
<path class="st4" d="M121.66,63.33c-0.6,1.55-1.17,3.1-1.73,4.67c2.98,0.68,5.97,1.36,8.95,2.04c1.15-3.25,2.4-6.46,3.72-9.64
	c-2.73-2.09-5.41-4.24-8.04-6.49c-2.24,2.08-4.49,4.16-6.73,6.24C119.09,61.23,120.37,62.29,121.66,63.33z"/>
<path class="st4" d="M121.66,87.98c-1.29,1.04-2.57,2.1-3.83,3.18c2.24,2.08,4.49,4.16,6.73,6.24c2.63-2.24,5.31-4.4,8.04-6.49
	c-1.32-3.17-2.57-6.38-3.72-9.64c-2.98,0.68-5.97,1.36-8.95,2.04C120.48,84.88,121.06,86.44,121.66,87.98z"/>
<path class="st4" d="M109.33,109.33c-1.64,0.26-3.27,0.53-4.9,0.84c0.9,2.92,1.8,5.85,2.71,8.77c3.39-0.63,6.8-1.16,10.21-1.6
	c0.44-3.41,0.97-6.81,1.6-10.21c-2.92-0.9-5.85-1.8-8.77-2.71C109.87,106.06,109.59,107.69,109.33,109.33z"/>
<path class="st4" d="M87.98,121.66c-1.55-0.6-3.1-1.17-4.67-1.73c-0.68,2.98-1.36,5.97-2.04,8.95c3.25,1.15,6.46,2.4,9.64,3.72
	c2.09-2.73,4.24-5.41,6.49-8.04c-2.08-2.24-4.16-4.49-6.24-6.73C90.08,119.09,89.02,120.37,87.98,121.66z"/>
<path class="st4" d="M63.33,121.66c-1.04-1.29-2.1-2.57-3.18-3.83c-2.08,2.24-4.16,4.49-6.24,6.73c2.24,2.63,4.4,5.31,6.49,8.04
	c3.17-1.32,6.38-2.57,9.64-3.72c-0.68-2.98-1.36-5.97-2.04-8.95C66.43,120.48,64.88,121.06,63.33,121.66z"/>
<path class="st4" d="M41.98,109.33c-0.26-1.64-0.53-3.27-0.84-4.9c-2.92,0.9-5.85,1.8-8.77,2.71c0.63,3.39,1.16,6.8,1.6,10.21
	c3.41,0.44,6.81,0.97,10.21,1.6c0.9-2.92,1.8-5.85,2.71-8.77C45.26,109.87,43.62,109.59,41.98,109.33z"/>
<path class="st4" d="M29.66,87.98c0.6-1.55,1.17-3.1,1.73-4.67c-2.98-0.68-5.97-1.36-8.95-2.04c-1.15,3.25-2.4,6.46-3.72,9.64
	c2.73,2.09,5.41,4.24,8.04,6.49c2.24-2.08,4.49-4.16,6.73-6.24C32.23,90.08,30.95,89.02,29.66,87.98z"/>
<path class="st4" d="M29.66,63.33c1.29-1.04,2.57-2.1,3.83-3.18c-2.24-2.08-4.49-4.16-6.73-6.24c-2.63,2.24-5.31,4.4-8.04,6.49
	c1.32,3.17,2.57,6.38,3.72,9.64c2.98-0.68,5.97-1.36,8.95-2.04C30.83,66.43,30.26,64.88,29.66,63.33z"/>
<path class="st4" d="M41.98,41.98c1.64-0.26,3.27-0.53,4.9-0.84c-0.9-2.92-1.8-5.85-2.71-8.77c-3.39,0.63-6.8,1.16-10.21,1.6
	c-0.44,3.41-0.97,6.81-1.6,10.21c2.92,0.9,5.85,1.8,8.77,2.71C41.45,45.26,41.73,43.62,41.98,41.98z"/>
<path class="st3" d="M59.53,15.48c3.65,1.56,7.34,3.02,11.1,4.35c0.63-2.78,1.26-5.55,1.89-8.33c-5.4-1.9-10.64-4.14-15.81-6.54
	c-3.27,4.67-6.69,9.22-10.42,13.57c1.94,2.09,3.87,4.17,5.8,6.27C54.68,21.77,57.15,18.66,59.53,15.48z"/>
<path class="st3" d="M91.78,15.48c2.38,3.18,4.85,6.29,7.44,9.32c1.93-2.09,3.87-4.18,5.8-6.27c-3.73-4.35-7.15-8.91-10.42-13.57
	c-5.17,2.4-10.41,4.64-15.81,6.54c0.63,2.78,1.27,5.55,1.89,8.33C84.44,18.5,88.13,17.04,91.78,15.48z"/>
<path class="st3" d="M119.71,31.61c0.47,3.94,1.06,7.87,1.78,11.79c2.72-0.85,5.44-1.69,8.16-2.53c-1.05-5.63-1.74-11.29-2.24-16.96
	c-5.68-0.5-11.34-1.18-16.96-2.24c-0.84,2.72-1.68,5.44-2.53,8.16C111.84,30.55,115.77,31.13,119.71,31.61z"/>
<path class="st3" d="M135.83,59.53c-1.56,3.65-3.02,7.34-4.35,11.1c2.78,0.63,5.55,1.26,8.33,1.89c1.9-5.4,4.14-10.64,6.54-15.81
	c-4.67-3.27-9.22-6.69-13.57-10.42c-2.09,1.94-4.17,3.87-6.27,5.8C129.55,54.68,132.66,57.15,135.83,59.53z"/>
<path class="st3" d="M135.83,91.78c-3.18,2.38-6.29,4.85-9.32,7.44c2.09,1.93,4.18,3.87,6.27,5.8c4.35-3.73,8.91-7.15,13.57-10.42
	c-2.4-5.17-4.64-10.41-6.54-15.81c-2.78,0.63-5.55,1.27-8.33,1.89C132.81,84.44,134.27,88.13,135.83,91.78z"/>
<path class="st3" d="M119.71,119.71c-3.94,0.47-7.87,1.06-11.79,1.78c0.85,2.72,1.69,5.44,2.53,8.16
	c5.63-1.05,11.29-1.74,16.96-2.24c0.5-5.68,1.18-11.34,2.24-16.96c-2.72-0.84-5.44-1.68-8.16-2.53
	C120.77,111.84,120.18,115.77,119.71,119.71z"/>
<path class="st3" d="M91.78,135.83c-3.65-1.56-7.34-3.02-11.1-4.35c-0.63,2.78-1.26,5.55-1.89,8.33c5.4,1.9,10.64,4.14,15.81,6.54
	c3.27-4.67,6.69-9.22,10.42-13.57c-1.94-2.09-3.87-4.17-5.8-6.27C96.63,129.55,94.16,132.66,91.78,135.83z"/>
<path class="st3" d="M59.53,135.83c-2.38-3.18-4.85-6.29-7.44-9.32c-1.93,2.09-3.87,4.18-5.8,6.27c3.73,4.35,7.15,8.91,10.42,13.57
	c5.17-2.4,10.41-4.64,15.81-6.54c-0.63-2.78-1.27-5.55-1.89-8.33C66.88,132.81,63.18,134.27,59.53,135.83z"/>
<path class="st3" d="M31.61,119.71c-0.47-3.94-1.06-7.87-1.78-11.79c-2.72,0.85-5.44,1.69-8.16,2.53
	c1.05,5.63,1.74,11.29,2.24,16.96c5.68,0.5,11.34,1.18,16.96,2.24c0.84-2.72,1.68-5.44,2.52-8.16
	C39.48,120.77,35.55,120.18,31.61,119.71z"/>
<path class="st3" d="M15.48,91.78c1.56-3.65,3.02-7.34,4.35-11.1c-2.78-0.63-5.55-1.26-8.33-1.89c-1.9,5.4-4.14,10.64-6.54,15.81
	c4.67,3.27,9.22,6.69,13.57,10.42c2.09-1.94,4.17-3.87,6.27-5.8C21.77,96.63,18.66,94.16,15.48,91.78z"/>
<path class="st3" d="M15.48,59.53c3.18-2.38,6.29-4.85,9.32-7.44c-2.09-1.93-4.18-3.87-6.27-5.8c-4.35,3.73-8.91,7.15-13.57,10.42
	c2.4,5.17,4.64,10.41,6.54,15.81c2.78-0.63,5.55-1.27,8.33-1.89C18.5,66.88,17.04,63.18,15.48,59.53z"/>
<path class="st3" d="M31.61,31.61c3.94-0.47,7.87-1.06,11.79-1.78c-0.85-2.72-1.69-5.44-2.52-8.16c-5.63,1.05-11.29,1.74-16.96,2.24
	c-0.5,5.68-1.18,11.34-2.24,16.96c2.72,0.84,5.44,1.68,8.16,2.53C30.55,39.48,31.13,35.55,31.61,31.61z"/>
<path class="st2" d="M69.66,53.28c0.45-0.08,0.92-0.1,1.39-0.07c0.2-0.03,0.41-0.02,0.63,0.06c0.01,0,0.01,0,0.02,0
	c0.01,0,0.01,0,0.02,0.01c0.24,0.05,0.43,0.14,0.58,0.26c2.19,1.06,3.53,3.38,2.86,5.87c-0.4,1.52-1.55,2.76-2.96,3.36
	c-1.52,0.18-3.13-0.31-4.24-1.43c-1.82-1.82-1.82-4.5-0.46-6.51c0.07-0.18,0.19-0.36,0.37-0.52c0,0,0.01-0.01,0.01-0.01
	c0,0,0.01-0.01,0.01-0.01c0.16-0.18,0.33-0.3,0.52-0.37C68.81,53.66,69.23,53.44,69.66,53.28z"/>
<path class="st2" d="M81.65,53.28c0.43,0.16,0.85,0.37,1.24,0.64c0.19,0.07,0.36,0.19,0.52,0.37c0,0,0.01,0.01,0.01,0.01
	c0,0,0.01,0.01,0.01,0.01c0.18,0.16,0.3,0.33,0.37,0.52c1.36,2.01,1.36,4.69-0.46,6.51c-1.11,1.11-2.72,1.61-4.24,1.43
	c-1.41-0.6-2.56-1.84-2.96-3.36c-0.67-2.49,0.67-4.8,2.86-5.87c0.15-0.12,0.34-0.22,0.58-0.26c0.01,0,0.01,0,0.02-0.01
	c0.01,0,0.01,0,0.02,0c0.23-0.08,0.44-0.09,0.63-0.06C80.73,53.18,81.2,53.21,81.65,53.28z"/>
<path class="st2" d="M92.04,59.28c0.29,0.35,0.55,0.75,0.76,1.17c0.12,0.15,0.22,0.34,0.26,0.58c0,0.01,0,0.01,0.01,0.02
	c0,0.01,0,0.01,0,0.02c0.08,0.23,0.09,0.44,0.06,0.63c0.17,2.42-1.17,4.75-3.65,5.41c-1.52,0.41-3.16,0.04-4.39-0.88
	c-0.92-1.23-1.29-2.87-0.88-4.39c0.66-2.49,2.99-3.82,5.41-3.65c0.2-0.03,0.41-0.02,0.63,0.06c0.01,0,0.01,0,0.02,0
	c0.01,0,0.01,0,0.02,0.01c0.24,0.05,0.43,0.14,0.58,0.26C91.29,58.73,91.68,58.99,92.04,59.28z"/>
<path class="st2" d="M98.03,69.66c0.08,0.45,0.1,0.92,0.07,1.39c0.03,0.2,0.02,0.41-0.06,0.63c0,0.01,0,0.01,0,0.02
	c0,0.01,0,0.01-0.01,0.02c-0.05,0.24-0.14,0.43-0.26,0.58c-1.06,2.19-3.38,3.53-5.87,2.86c-1.52-0.4-2.76-1.55-3.36-2.96
	c-0.18-1.52,0.31-3.13,1.43-4.24c1.82-1.82,4.5-1.82,6.51-0.46c0.18,0.07,0.36,0.19,0.52,0.37c0,0,0.01,0.01,0.01,0.01
	c0,0,0.01,0.01,0.01,0.01c0.18,0.16,0.3,0.33,0.37,0.52C97.66,68.81,97.87,69.23,98.03,69.66z"/>
<path class="st2" d="M98.03,81.65c-0.16,0.43-0.37,0.85-0.64,1.24c-0.07,0.18-0.19,0.36-0.37,0.52c0,0-0.01,0.01-0.01,0.01
	c0,0-0.01,0.01-0.01,0.01c-0.16,0.18-0.33,0.3-0.52,0.37c-2.01,1.36-4.69,1.36-6.51-0.46c-1.11-1.11-1.61-2.72-1.43-4.24
	c0.6-1.41,1.84-2.56,3.36-2.96c2.49-0.67,4.8,0.67,5.87,2.86c0.12,0.15,0.22,0.34,0.26,0.58c0,0.01,0,0.01,0.01,0.02
	c0,0.01,0,0.01,0,0.02c0.08,0.23,0.09,0.44,0.06,0.63C98.13,80.73,98.11,81.2,98.03,81.65z"/>
<path class="st2" d="M92.04,92.04c-0.35,0.29-0.75,0.55-1.17,0.76c-0.15,0.12-0.34,0.22-0.58,0.26c-0.01,0-0.01,0-0.02,0.01
	c-0.01,0-0.01,0-0.02,0c-0.23,0.08-0.44,0.09-0.63,0.06c-2.42,0.17-4.75-1.17-5.41-3.65c-0.41-1.52-0.04-3.16,0.88-4.39
	c1.23-0.92,2.87-1.29,4.39-0.88c2.49,0.66,3.82,2.99,3.65,5.41c0.03,0.2,0.02,0.41-0.06,0.63c0,0.01,0,0.01,0,0.02
	c0,0.01,0,0.01-0.01,0.02c-0.05,0.24-0.14,0.43-0.26,0.58C92.58,91.29,92.33,91.68,92.04,92.04z"/>
<path class="st2" d="M81.65,98.03c-0.45,0.08-0.92,0.1-1.39,0.07c-0.2,0.03-0.41,0.02-0.63-0.06c-0.01,0-0.01,0-0.02,0
	c-0.01,0-0.01,0-0.02-0.01c-0.24-0.05-0.43-0.14-0.58-0.26c-2.19-1.06-3.53-3.38-2.86-5.87c0.4-1.52,1.55-2.76,2.96-3.36
	c1.52-0.18,3.13,0.31,4.24,1.43c1.82,1.82,1.82,4.5,0.46,6.51c-0.07,0.18-0.19,0.36-0.37,0.52c0,0-0.01,0.01-0.01,0.01
	c0,0-0.01,0.01-0.01,0.01c-0.16,0.18-0.33,0.3-0.52,0.37C82.5,97.66,82.08,97.87,81.65,98.03z"/>
<path class="st2" d="M69.66,98.03c-0.43-0.16-0.85-0.37-1.24-0.64c-0.18-0.07-0.36-0.19-0.52-0.37c0,0-0.01-0.01-0.01-0.01
	c0,0-0.01-0.01-0.01-0.01c-0.18-0.16-0.3-0.33-0.37-0.52c-1.36-2.01-1.36-4.69,0.46-6.51c1.11-1.11,2.72-1.61,4.24-1.43
	c1.41,0.6,2.56,1.84,2.96,3.36c0.67,2.49-0.68,4.8-2.86,5.87c-0.15,0.12-0.34,0.22-0.58,0.26c-0.01,0-0.01,0-0.02,0.01
	c-0.01,0-0.01,0-0.02,0c-0.23,0.08-0.44,0.09-0.63,0.06C70.58,98.13,70.12,98.11,69.66,98.03z"/>
<path class="st2" d="M59.28,92.04c-0.29-0.35-0.55-0.75-0.76-1.17c-0.12-0.15-0.22-0.34-0.26-0.58c0-0.01,0-0.01-0.01-0.02
	c0-0.01,0-0.01,0-0.02c-0.08-0.23-0.09-0.44-0.06-0.63c-0.17-2.42,1.17-4.75,3.65-5.41c1.52-0.41,3.16-0.04,4.39,0.88
	c0.92,1.23,1.29,2.87,0.88,4.39c-0.66,2.49-2.99,3.82-5.41,3.65c-0.2,0.03-0.41,0.02-0.63-0.06c-0.01,0-0.01,0-0.02,0
	c-0.01,0-0.01,0-0.02-0.01c-0.24-0.05-0.43-0.14-0.58-0.26C60.03,92.58,59.63,92.33,59.28,92.04z"/>
<g>
	<path class="st4" d="M108.9,100.39c0,17.59-14.84,28.92-36.25,28.92c-24.02,0-31.37-13.62-31.37-24.17
		c0-9.03,8.57-18.36,14.54-18.36c-1.38,1.37-2.6,2.75-3.68,4.29c-1.83,2.59-3.51,6.12-3.51,9.94c0,14.23,9.94,17.59,22.64,17.59
		c12.71,0,25.09-4.58,25.09-14.08c0-20.66-49.41-22.95-49.41-54.31c0-13.17,14.84-24.64,29.53-24.64s28.6,7.65,28.6,20.82
		c0,6.27-3.51,9.63-7.34,9.63c-4.29,0-6.73-1.22-8.42-2.9c-0.91-0.92-1.52-1.99-1.83-3.06l0.61,0.31c0.46,0.15,0.77,0.3,1.22,0.3
		c1.23,0,2.75-1.22,2.75-3.66c0-1.99-4.27-8.88-15.3-8.88c-7.49,0-16.06,5.67-16.06,12.86C60.71,70.7,108.9,75.45,108.9,100.39z"/>
</g>
<path class="st2" d="M53.28,81.65c-0.08-0.45-0.1-0.92-0.07-1.39c-0.03-0.2-0.02-0.41,0.06-0.63c0-0.01,0-0.01,0-0.02
	c0-0.01,0-0.01,0.01-0.02c0.05-0.24,0.14-0.43,0.26-0.58c1.06-2.19,3.38-3.53,5.87-2.86c1.52,0.4,2.76,1.55,3.36,2.96
	c0.18,1.52-0.31,3.13-1.43,4.24c-1.82,1.82-4.5,1.82-6.51,0.46c-0.18-0.07-0.36-0.19-0.52-0.37c0,0-0.01-0.01-0.01-0.01
	c0,0-0.01-0.01-0.01-0.01c-0.18-0.16-0.3-0.33-0.37-0.52C53.66,82.5,53.44,82.08,53.28,81.65z"/>
<path class="st2" d="M53.28,69.66c0.16-0.43,0.37-0.85,0.64-1.24c0.07-0.18,0.19-0.36,0.37-0.52c0,0,0.01-0.01,0.01-0.01
	c0,0,0.01-0.01,0.01-0.01c0.16-0.18,0.33-0.3,0.52-0.37c2.01-1.36,4.69-1.36,6.51,0.46c1.11,1.11,1.61,2.72,1.43,4.24
	c-0.6,1.41-1.84,2.56-3.36,2.96c-2.49,0.67-4.8-0.68-5.87-2.86c-0.12-0.15-0.22-0.34-0.26-0.58c0-0.01,0-0.01-0.01-0.02
	c0-0.01,0-0.01,0-0.02c-0.08-0.23-0.09-0.44-0.06-0.63C53.18,70.58,53.21,70.12,53.28,69.66z"/>
<path class="st2" d="M59.28,59.28c0.35-0.29,0.75-0.55,1.17-0.76c0.15-0.12,0.34-0.22,0.58-0.26c0.01,0,0.01,0,0.02-0.01
	c0.01,0,0.01,0,0.02,0c0.23-0.08,0.44-0.09,0.63-0.06c2.42-0.17,4.75,1.17,5.41,3.65c0.41,1.52,0.04,3.16-0.88,4.39
	c-1.23,0.92-2.87,1.29-4.39,0.88c-2.49-0.66-3.82-2.99-3.65-5.41c-0.03-0.2-0.02-0.41,0.06-0.63c0-0.01,0-0.01,0-0.02
	c0-0.01,0-0.01,0.01-0.02c0.05-0.24,0.14-0.43,0.26-0.58C58.73,60.03,58.99,59.63,59.28,59.28z"/>
<path class="st2" d="M71.52,60.23c1.45-0.93,1.6-3.63-0.47-4.37c-0.01,0-0.02,0-0.03-0.01c-0.01,0-0.02-0.01-0.03-0.01
	c-0.23-0.04-0.44-0.05-0.65-0.04c-0.18,0.09-0.37,0.21-0.54,0.35c-0.01,0.01-0.02,0.02-0.02,0.03c-0.01,0.01-0.02,0.02-0.03,0.02
	C68.32,57.88,69.81,60.15,71.52,60.23z"/>
<path class="st2" d="M79.79,60.23c1.71-0.08,3.2-2.35,1.78-4.02c-0.01-0.01-0.02-0.02-0.03-0.02c-0.01-0.01-0.02-0.02-0.02-0.03
	c-0.18-0.15-0.36-0.27-0.54-0.35c-0.2-0.02-0.42-0.01-0.65,0.04c-0.01,0-0.02,0.01-0.03,0.01c-0.01,0-0.02,0-0.03,0.01
	C78.19,56.6,78.35,59.3,79.79,60.23z"/>
<path class="st2" d="M86.95,64.36c1.52,0.79,3.95-0.43,3.55-2.59c0-0.01-0.01-0.02-0.01-0.03c0-0.01,0-0.02-0.01-0.03
	c-0.08-0.22-0.18-0.41-0.29-0.58c-0.17-0.12-0.36-0.21-0.58-0.29c-0.01,0-0.02,0-0.03-0.01c-0.01,0-0.02-0.01-0.03-0.01
	C87.39,60.42,86.16,62.84,86.95,64.36z"/>
<path class="st2" d="M91.09,71.52c0.93,1.45,3.63,1.6,4.37-0.47c0-0.01,0-0.02,0.01-0.03c0-0.01,0.01-0.02,0.01-0.03
	c0.04-0.23,0.05-0.44,0.04-0.65c-0.09-0.18-0.21-0.37-0.35-0.54c-0.01-0.01-0.02-0.02-0.03-0.02c-0.01-0.01-0.02-0.02-0.02-0.03
	C93.43,68.32,91.16,69.81,91.09,71.52z"/>
<path class="st2" d="M91.09,79.79c0.08,1.71,2.35,3.2,4.02,1.78c0.01-0.01,0.02-0.02,0.02-0.03c0.01-0.01,0.02-0.02,0.03-0.02
	c0.15-0.18,0.27-0.36,0.35-0.54c0.02-0.2,0.01-0.42-0.04-0.65c0-0.01-0.01-0.02-0.01-0.03c0-0.01,0-0.02-0.01-0.03
	C94.72,78.19,92.01,78.35,91.09,79.79z"/>
<path class="st2" d="M86.95,86.95c-0.79,1.52,0.43,3.95,2.59,3.55c0.01,0,0.02-0.01,0.03-0.01c0.01,0,0.02,0,0.03-0.01
	c0.22-0.08,0.41-0.18,0.58-0.29c0.12-0.17,0.21-0.36,0.29-0.58c0-0.01,0-0.02,0.01-0.03c0-0.01,0.01-0.02,0.01-0.03
	C90.9,87.39,88.48,86.16,86.95,86.95z"/>
<path class="st2" d="M79.79,91.09c-1.45,0.93-1.6,3.63,0.47,4.37c0.01,0,0.02,0,0.03,0.01c0.01,0,0.02,0.01,0.03,0.01
	c0.23,0.04,0.44,0.05,0.65,0.04c0.19-0.09,0.37-0.21,0.54-0.35c0.01-0.01,0.02-0.02,0.02-0.03c0.01-0.01,0.02-0.02,0.03-0.02
	C82.99,93.43,81.51,91.16,79.79,91.09z"/>
<path class="st2" d="M71.52,91.09c-1.71,0.08-3.2,2.35-1.78,4.02c0.01,0.01,0.02,0.02,0.03,0.02c0.01,0.01,0.02,0.02,0.02,0.03
	c0.18,0.15,0.36,0.27,0.54,0.35c0.2,0.02,0.42,0.01,0.65-0.04c0.01,0,0.02-0.01,0.03-0.01c0.01,0,0.02,0,0.03-0.01
	C73.12,94.72,72.97,92.01,71.52,91.09z"/>
<path class="st2" d="M64.36,86.95c-1.52-0.79-3.95,0.43-3.55,2.59c0,0.01,0.01,0.02,0.01,0.03c0,0.01,0,0.02,0.01,0.03
	c0.08,0.22,0.18,0.41,0.29,0.58c0.17,0.12,0.36,0.21,0.58,0.29c0.01,0,0.02,0,0.03,0.01c0.01,0,0.02,0.01,0.03,0.01
	C63.93,90.9,65.15,88.48,64.36,86.95z"/>
<path class="st2" d="M60.23,79.79c-0.93-1.45-3.63-1.6-4.37,0.47c0,0.01,0,0.02-0.01,0.03c0,0.01-0.01,0.02-0.01,0.03
	c-0.04,0.23-0.05,0.44-0.04,0.65c0.09,0.19,0.21,0.37,0.35,0.54c0.01,0.01,0.02,0.02,0.03,0.02c0.01,0.01,0.02,0.02,0.02,0.03
	C57.88,82.99,60.15,81.51,60.23,79.79z"/>
<path class="st2" d="M60.23,71.52c-0.08-1.71-2.35-3.2-4.02-1.78c-0.01,0.01-0.02,0.02-0.02,0.03c-0.01,0.01-0.02,0.02-0.03,0.02
	c-0.15,0.18-0.27,0.36-0.35,0.54c-0.02,0.2-0.01,0.42,0.04,0.65c0,0.01,0.01,0.02,0.01,0.03c0,0.01,0,0.02,0.01,0.03
	C56.6,73.12,59.3,72.97,60.23,71.52z"/>
<path class="st2" d="M64.36,64.36c0.79-1.52-0.43-3.95-2.59-3.55c-0.01,0-0.02,0.01-0.03,0.01c-0.01,0-0.02,0-0.03,0.01
	c-0.22,0.08-0.41,0.18-0.58,0.29c-0.12,0.17-0.21,0.36-0.29,0.58c0,0.01,0,0.02-0.01,0.03c0,0.01-0.01,0.02-0.01,0.03
	C60.42,63.93,62.84,65.15,64.36,64.36z"/>
<path class="st1" d="M75.66,45.29c-0.56-0.14-1.12-0.29-1.68-0.44c0,0-0.01,0-0.01,0c0,0-0.01,0-0.01,0
	c-1.56-0.41-3.1-0.86-4.64-1.34c2.11-9.28,4.23-18.55,6.34-27.83c2.11,9.28,4.23,18.55,6.34,27.83c-1.53,0.48-3.07,0.93-4.64,1.34
	c0,0-0.01,0-0.01,0c0,0-0.01,0-0.01,0C76.78,45,76.22,45.15,75.66,45.29z"/>
<path class="st1" d="M90.84,49.36c-0.41-0.4-0.82-0.81-1.23-1.22c0,0-0.01-0.01-0.01-0.01c0,0-0.01-0.01-0.01-0.01
	c-1.15-1.13-2.26-2.3-3.35-3.48c6.47-6.98,12.94-13.95,19.4-20.93c-2.81,9.09-5.61,18.18-8.42,27.27c-1.57-0.35-3.13-0.73-4.68-1.16
	c0,0-0.01,0-0.01,0c0,0-0.01,0-0.01,0C91.95,49.67,91.4,49.52,90.84,49.36z"/>
<path class="st1" d="M106.02,75.66c0.14-0.56,0.29-1.12,0.44-1.68c0,0,0-0.01,0-0.01c0,0,0-0.01,0-0.01
	c0.41-1.56,0.86-3.1,1.34-4.64c9.28,2.11,18.55,4.23,27.83,6.34c-9.28,2.11-18.55,4.23-27.83,6.34c-0.48-1.53-0.93-3.07-1.34-4.64
	c0,0,0-0.01,0-0.01c0,0,0-0.01,0-0.01C106.31,76.78,106.17,76.22,106.02,75.66z"/>
<path class="st1" d="M75.66,106.02c0.56,0.14,1.12,0.29,1.68,0.44c0,0,0.01,0,0.01,0c0,0,0.01,0,0.01,0
	c1.56,0.41,3.1,0.86,4.64,1.34c-2.11,9.28-4.23,18.55-6.34,27.83c-2.11-9.28-4.23-18.55-6.34-27.83c1.53-0.48,3.07-0.93,4.64-1.34
	c0,0,0.01,0,0.01,0c0,0,0.01,0,0.01,0C74.54,106.31,75.1,106.17,75.66,106.02z"/>
<path class="st1" d="M60.47,101.96c0.41,0.4,0.82,0.81,1.23,1.22c0,0,0.01,0.01,0.01,0.01c0,0,0.01,0.01,0.01,0.01
	c1.15,1.13,2.26,2.3,3.35,3.48c-6.47,6.98-12.94,13.95-19.4,20.93c2.81-9.09,5.61-18.18,8.42-27.27c1.57,0.35,3.13,0.73,4.68,1.16
	c0,0,0.01,0,0.01,0c0,0,0.01,0,0.01,0C59.36,101.65,59.92,101.8,60.47,101.96z"/>
<path class="st1" d="M45.29,75.66c-0.14,0.56-0.29,1.12-0.44,1.68c0,0,0,0.01,0,0.01c0,0,0,0.01,0,0.01
	c-0.41,1.56-0.86,3.1-1.34,4.64c-9.28-2.11-18.55-4.23-27.83-6.34c9.28-2.11,18.55-4.23,27.83-6.34c0.48,1.53,0.93,3.07,1.34,4.64
	c0,0,0,0.01,0,0.01c0,0,0,0.01,0,0.01C45,74.54,45.15,75.1,45.29,75.66z"/>
<path class="st4" d="M70.34,55.81c0.2-0.02,0.42-0.01,0.65,0.04c0.01,0,0.02,0.01,0.03,0.01c0.01,0,0.02,0,0.03,0.01
	c2.07,0.73,1.92,3.44,0.47,4.37c-1.71-0.08-3.2-2.35-1.78-4.02c0.01-0.01,0.02-0.02,0.03-0.02c0.01-0.01,0.02-0.02,0.02-0.03
	C69.97,56.01,70.15,55.9,70.34,55.81z"/>
<path class="st4" d="M80.98,55.81c0.19,0.09,0.37,0.21,0.54,0.35c0.01,0.01,0.02,0.02,0.02,0.03c0.01,0.01,0.02,0.02,0.03,0.02
	c1.42,1.67-0.06,3.94-1.78,4.02c-1.45-0.93-1.6-3.63,0.47-4.37c0.01,0,0.02,0,0.03-0.01c0.01,0,0.02-0.01,0.03-0.01
	C80.56,55.8,80.77,55.79,80.98,55.81z"/>
<path class="st4" d="M90.19,61.13c0.12,0.17,0.21,0.36,0.29,0.58c0,0.01,0,0.02,0.01,0.03c0,0.01,0.01,0.02,0.01,0.03
	c0.4,2.16-2.02,3.38-3.55,2.59c-0.79-1.52,0.43-3.95,2.59-3.55c0.01,0,0.02,0.01,0.03,0.01c0.01,0,0.02,0,0.03,0.01
	C89.83,60.91,90.02,61.01,90.19,61.13z"/>
<path class="st4" d="M95.51,70.34c0.02,0.2,0.01,0.42-0.04,0.65c0,0.01-0.01,0.02-0.01,0.03c0,0.01,0,0.02-0.01,0.03
	c-0.73,2.07-3.44,1.92-4.37,0.47c0.08-1.71,2.35-3.2,4.02-1.78c0.01,0.01,0.02,0.02,0.02,0.03c0.01,0.01,0.02,0.02,0.03,0.02
	C95.3,69.97,95.42,70.15,95.51,70.34z"/>
<path class="st4" d="M95.51,80.98c-0.09,0.19-0.21,0.37-0.35,0.54c-0.01,0.01-0.02,0.02-0.03,0.02c-0.01,0.01-0.02,0.02-0.02,0.03
	c-1.67,1.42-3.94-0.06-4.02-1.78c0.93-1.45,3.63-1.6,4.37,0.47c0,0.01,0,0.02,0.01,0.03c0,0.01,0.01,0.02,0.01,0.03
	C95.51,80.56,95.52,80.77,95.51,80.98z"/>
<path class="st4" d="M90.19,90.19c-0.17,0.12-0.36,0.21-0.58,0.29c-0.01,0-0.02,0-0.03,0.01c-0.01,0-0.02,0.01-0.03,0.01
	c-2.16,0.4-3.38-2.02-2.59-3.55c1.52-0.79,3.95,0.43,3.55,2.59c0,0.01-0.01,0.02-0.01,0.03c0,0.01,0,0.02-0.01,0.03
	C90.4,89.83,90.31,90.02,90.19,90.19z"/>
<path class="st4" d="M80.98,95.51c-0.2,0.02-0.42,0.01-0.65-0.04c-0.01,0-0.02-0.01-0.03-0.01c-0.01,0-0.02,0-0.03-0.01
	c-2.07-0.73-1.92-3.44-0.47-4.37c1.71,0.08,3.2,2.35,1.78,4.02c-0.01,0.01-0.02,0.02-0.03,0.02c-0.01,0.01-0.02,0.02-0.02,0.03
	C81.34,95.3,81.16,95.42,80.98,95.51z"/>
<path class="st4" d="M70.34,95.51c-0.18-0.09-0.37-0.21-0.54-0.35c-0.01-0.01-0.02-0.02-0.02-0.03c-0.01-0.01-0.02-0.02-0.03-0.02
	c-1.42-1.67,0.06-3.94,1.78-4.02c1.45,0.93,1.6,3.63-0.47,4.37c-0.01,0-0.02,0-0.03,0.01c-0.01,0-0.02,0.01-0.03,0.01
	C70.76,95.51,70.54,95.52,70.34,95.51z"/>
<path class="st4" d="M61.13,90.19c-0.12-0.17-0.21-0.36-0.29-0.58c0-0.01,0-0.02-0.01-0.03c0-0.01-0.01-0.02-0.01-0.03
	c-0.4-2.16,2.02-3.38,3.55-2.59c0.79,1.52-0.43,3.95-2.59,3.55c-0.01,0-0.02-0.01-0.03-0.01c-0.01,0-0.02,0-0.03-0.01
	C61.49,90.4,61.3,90.31,61.13,90.19z"/>
<path class="st4" d="M55.81,80.98c-0.02-0.2-0.01-0.42,0.04-0.65c0-0.01,0.01-0.02,0.01-0.03c0-0.01,0-0.02,0.01-0.03
	c0.73-2.07,3.44-1.92,4.37-0.47c-0.08,1.71-2.35,3.2-4.02,1.78c-0.01-0.01-0.02-0.02-0.02-0.03c-0.01-0.01-0.02-0.02-0.03-0.02
	C56.01,81.34,55.9,81.16,55.81,80.98z"/>
<path class="st4" d="M55.81,70.34c0.09-0.18,0.21-0.37,0.35-0.54c0.01-0.01,0.02-0.02,0.03-0.02c0.01-0.01,0.02-0.02,0.02-0.03
	c1.67-1.42,3.94,0.06,4.02,1.78c-0.93,1.45-3.63,1.6-4.37-0.47c0-0.01,0-0.02-0.01-0.03c0-0.01-0.01-0.02-0.01-0.03
	C55.8,70.76,55.79,70.54,55.81,70.34z"/>
<path class="st4" d="M61.13,61.13c0.17-0.12,0.36-0.21,0.58-0.29c0.01,0,0.02,0,0.03-0.01c0.01,0,0.02-0.01,0.03-0.01
	c2.16-0.4,3.38,2.02,2.59,3.55c-1.52,0.79-3.95-0.43-3.55-2.59c0-0.01,0.01-0.02,0.01-0.03c0-0.01,0-0.02,0.01-0.03
	C60.91,61.49,61.01,61.3,61.13,61.13z"/>
</svg>
